<?xml version="1.0" encoding="UTF-8"?>
<!DOCTYPE svg PUBLIC "-//W3C//DTD SVG 1.1//EN" "http://www.w3.org/Graphics/SVG/1.1/DTD/svg11.dtd">
<!-- Creator: CorelDRAW -->
<svg xmlns="http://www.w3.org/2000/svg" xml:space="preserve" width="73.1854mm" height="129.658mm" version="1.1" style="shape-rendering:geometricPrecision; text-rendering:geometricPrecision; image-rendering:optimizeQuality; fill-rule:evenodd; clip-rule:evenodd"
viewBox="0 0 2783 4930.47"
 xmlns:xlink="http://www.w3.org/1999/xlink"
 xmlns:xodm="http://www.corel.com/coreldraw/odm/2003">
 <defs>
  <style type="text/css">
   <![CDATA[
    .fil0 {fill:#008DD2;fill-rule:nonzero}
   ]]>
  </style>
 </defs>
 <g id="Слой_x0020_1">
  <metadata id="CorelCorpID_0Corel-Layer"/>
  <g id="_1916974724000">
   <path class="fil0" d="M205.22 4693.65c28.6,40.72 79.69,62.56 129.42,61.79 173.2,-2.69 261.1,-213.56 405.63,-281.17 24.22,-11.34 50.56,-19.47 77.3,-18.6 100.6,3.29 162.27,155.56 194.14,230.94 -24.95,-59.01 -97.26,-68.61 -153.25,-58.36 -75.22,13.75 -133.36,68.63 -183.3,123.07 -59.45,64.8 -123.85,129.55 -206.48,163.76 -24.57,10.18 -51.09,17.5 -77.56,14.84 -101.49,-10.2 -153.4,-157.16 -185.91,-236.26z"/>
   <path class="fil0" d="M886.46 4329.85c28.6,40.71 79.67,62.56 129.42,61.79 173.2,-2.69 261.1,-213.57 405.63,-281.16 24.22,-11.34 50.56,-19.48 77.3,-18.59 100.6,3.29 162.27,155.54 194.15,230.94 -24.95,-59.02 -97.26,-68.63 -153.25,-58.38 -75.22,13.75 -133.36,68.63 -183.31,123.07 -59.45,64.81 -123.85,129.55 -206.48,163.76 -24.57,10.18 -51.09,17.5 -77.56,14.85 -101.48,-10.22 -153.4,-157.17 -185.9,-236.28z"/>
   <path class="fil0" d="M1087.91 4693.65c28.6,40.72 79.67,62.56 129.42,61.79 173.2,-2.69 261.1,-213.56 405.63,-281.17 24.22,-11.34 50.56,-19.47 77.3,-18.6 100.6,3.29 162.27,155.56 194.15,230.94 -24.96,-59.01 -97.26,-68.61 -153.26,-58.36 -75.22,13.75 -133.36,68.63 -183.3,123.07 -59.45,64.8 -123.85,129.55 -206.48,163.76 -24.57,10.18 -51.09,17.5 -77.56,14.84 -101.48,-10.2 -153.4,-157.16 -185.9,-236.26z"/>
   <path class="fil0" d="M1773.31 4323.81c28.6,40.72 79.67,62.56 129.42,61.79 173.2,-2.68 261.1,-213.57 405.63,-281.16 24.22,-11.34 50.56,-19.47 77.28,-18.61 100.62,3.3 162.29,155.56 194.17,230.94 -24.96,-59 -97.27,-68.62 -153.26,-58.36 -75.22,13.75 -133.36,68.63 -183.31,123.07 -59.45,64.8 -123.84,129.55 -206.48,163.76 -24.57,10.18 -51.09,17.5 -77.56,14.83 -101.48,-10.19 -153.4,-157.15 -185.91,-236.26z"/>
   <path class="fil0" d="M1976.51 4693.65c28.6,40.72 79.67,62.56 129.42,61.79 173.2,-2.69 261.1,-213.56 405.63,-281.17 24.22,-11.34 50.56,-19.47 77.3,-18.6 100.59,3.29 162.27,155.56 194.15,230.94 -24.95,-59.01 -97.26,-68.61 -153.26,-58.36 -75.22,13.75 -133.36,68.63 -183.3,123.07 -59.45,64.8 -123.85,129.55 -206.48,163.76 -24.57,10.18 -51.1,17.5 -77.56,14.84 -101.49,-10.2 -153.4,-157.16 -185.91,-236.26z"/>
   <path class="fil0" d="M-0 4329.85c28.6,40.71 79.69,62.56 129.42,61.79 173.2,-2.69 261.1,-213.57 405.64,-281.16 24.22,-11.34 50.55,-19.48 77.3,-18.59 100.6,3.29 162.27,155.54 194.15,230.94 -24.96,-59.02 -97.26,-68.63 -153.26,-58.38 -75.22,13.75 -133.36,68.63 -183.31,123.07 -59.44,64.81 -123.84,129.55 -206.48,163.76 -24.57,10.18 -51.09,17.5 -77.56,14.85 -101.48,-10.22 -153.4,-157.17 -185.91,-236.28z"/>
  </g>
  <path class="fil0" d="M2217.53 3517.29c-2.29,1.83 -4.57,3.59 -6.86,5.42 -463.34,362.05 -1174.83,362.05 -1638.26,0.07 -2.32,-1.83 -4.65,-3.67 -6.96,-5.49 -348.86,-275.95 -540.47,-690.7 -506.12,-1095.67 42.43,-500.87 399.35,-935.71 729.32,-1351.46 261.14,-329.07 520.61,-686.69 602.87,-1070.16 82.19,383.47 341.72,741.09 602.86,1070.16 329.92,415.75 686.89,850.59 729.33,1351.46 34.28,404.97 -157.31,819.72 -506.17,1095.67zm-1845.47 -1059.65l0 3.62c0.03,75.45 1.19,116.86 16.34,192.53 26.14,130.5 73.31,250.78 145.93,359.55 43.09,64.54 58.11,83.73 110.63,140.5l40.14 43.57c23.96,23.71 86.77,74.36 114.24,95.03 8.23,6.19 15.21,12.79 24.72,17.13 25.15,11.49 49.62,16.85 72.61,17.37l7.42 0c131.9,-3.04 211.05,-166.7 82.96,-251.18 -31.52,-20.79 -70.2,-38.71 -107.24,-66.62l-49.62 -37.3c-15.45,-13.22 -31.12,-29.53 -46.02,-40.91 -16.2,-12.37 -30.08,-26.71 -43.21,-43.72 -7.71,-9.99 -14.05,-14.17 -21.96,-23.12 -43.87,-49.62 -73.01,-98.57 -106.88,-153.91l-41.83 -90.17c-67.32,-167.16 -74.52,-361.25 -22.33,-537.03 11.4,-38.38 36.79,-102.25 54.85,-138.33 7.25,-14.49 42.15,-66.54 -2.15,-66.54 -18.92,0 -33.65,26.7 -50.15,49.65 -43.37,60.32 -80.92,124.72 -108.53,194.11 -37.71,94.79 -69.9,205.27 -69.9,335.76z"/>
 </g>
</svg>
